M48
; DRILL file {KiCad 9.0.6} date 2025-12-18T00:43:42-0500
; FORMAT={-:-/ absolute / inch / decimal}
; #@! TF.CreationDate,2025-12-18T00:43:42-05:00
; #@! TF.GenerationSoftware,Kicad,Pcbnew,9.0.6
; #@! TF.FileFunction,Plated,1,2,PTH
FMAT,2
INCH
; #@! TA.AperFunction,Plated,PTH,ViaDrill
T1C0.0118
; #@! TA.AperFunction,Plated,PTH,ComponentDrill
T2C0.0394
%
G90
G05
T1
X2.6969Y-2.4213
X3.3661Y-2.4213
X3.4803Y-2.4606
X3.5039Y-2.6712
X3.5285Y-2.5109
X3.6247Y-2.5241
X3.6811Y-2.4724
X3.7205Y-2.4091
X3.7992Y-2.6575
X3.7992Y-2.6969
X3.8014Y-2.3608
X3.8248Y-2.3819
X3.8445Y-2.4705
X3.872Y-2.4213
X3.8757Y-2.4844
X3.8994Y-2.6266
X3.9173Y-2.5985
X3.9277Y-2.4965
X3.9741Y-2.4784
X3.9742Y-2.4006
X4.0157Y-2.7608
X4.0325Y-2.5226
X4.0831Y-2.4006
X4.1732Y-2.5886
X4.1732Y-2.6772
X4.7047Y-2.4213
X5.374Y-2.4213
T2
X2.4488Y-2.6142
X2.4488Y-3.2835
X2.4488Y-3.7923
X2.5709Y-2.6142
X2.5709Y-3.2835
X2.5709Y-3.7923
X3.1181Y-2.6142
X3.1181Y-3.2835
X3.1181Y-3.7923
X3.2402Y-2.6142
X3.2402Y-3.2835
X3.2402Y-3.7923
X3.7874Y-3.2835
X3.7874Y-3.7923
X3.9094Y-3.2835
X3.9094Y-3.7923
X4.4567Y-2.6142
X4.4567Y-3.2835
X4.4567Y-3.7923
X4.5787Y-2.6142
X4.5787Y-3.2835
X4.5787Y-3.7923
X5.126Y-2.6142
X5.126Y-3.2835
X5.126Y-3.7923
X5.248Y-2.6142
X5.248Y-3.2835
X5.248Y-3.7923
M30
