%TF.GenerationSoftware,KiCad,Pcbnew,9.0.6*%
%TF.CreationDate,2025-12-18T00:43:42-05:00*%
%TF.ProjectId,secret-santa-2025,73656372-6574-42d7-9361-6e74612d3230,rev?*%
%TF.SameCoordinates,Original*%
%TF.FileFunction,Profile,NP*%
%FSLAX46Y46*%
G04 Gerber Fmt 4.6, Leading zero omitted, Abs format (unit mm)*
G04 Created by KiCad (PCBNEW 9.0.6) date 2025-12-18 00:43:42*
%MOMM*%
%LPD*%
G01*
G04 APERTURE LIST*
%TA.AperFunction,Profile*%
%ADD10C,0.050000*%
%TD*%
%TA.AperFunction,Profile*%
%ADD11C,0.100000*%
%TD*%
G04 APERTURE END LIST*
D10*
X142470000Y-101125000D02*
G75*
G02*
X139470000Y-104125000I-3000000J0D01*
G01*
X93300000Y-53330000D02*
X56570378Y-53325378D01*
X56570000Y-104125000D02*
G75*
G02*
X53570000Y-101125000I0J3000000D01*
G01*
X56570000Y-104125000D02*
X139470000Y-104125000D01*
X142470000Y-56324669D02*
X142470000Y-101125000D01*
X139470331Y-53324669D02*
G75*
G02*
X142469931Y-56324669I-331J-2999931D01*
G01*
X53570000Y-56325378D02*
X53570000Y-101125000D01*
X53570000Y-56325378D02*
G75*
G02*
X56570378Y-53325400I3000000J-22D01*
G01*
X102700000Y-53320609D02*
X139470331Y-53324669D01*
D11*
%TO.C,SW13*%
X110750000Y-95325000D02*
X110750000Y-93925000D01*
X111750000Y-92925000D02*
X117750000Y-92925000D01*
X117750000Y-96325000D02*
X111750000Y-96325000D01*
X118750000Y-93925000D02*
X118750000Y-95325000D01*
X110750000Y-93925000D02*
G75*
G02*
X111750000Y-92925000I999999J1D01*
G01*
X111750000Y-96325000D02*
G75*
G02*
X110750000Y-95325000I-1J999999D01*
G01*
X117750000Y-92925000D02*
G75*
G02*
X118750000Y-93925000I0J-1000000D01*
G01*
X118750000Y-95325000D02*
G75*
G02*
X117750000Y-96325000I-1000000J0D01*
G01*
X109455000Y-95625000D02*
G75*
G02*
X108455000Y-95625000I-500000J0D01*
G01*
X108455000Y-95625000D02*
G75*
G02*
X109455000Y-95625000I500000J0D01*
G01*
X121145000Y-95625000D02*
G75*
G02*
X119945000Y-95625000I-600000J0D01*
G01*
X119945000Y-95625000D02*
G75*
G02*
X121145000Y-95625000I600000J0D01*
G01*
%TO.C,SW11*%
X76750000Y-95325000D02*
X76750000Y-93925000D01*
X77750000Y-92925000D02*
X83750000Y-92925000D01*
X83750000Y-96325000D02*
X77750000Y-96325000D01*
X84750000Y-93925000D02*
X84750000Y-95325000D01*
X76750000Y-93925000D02*
G75*
G02*
X77750000Y-92925000I999999J1D01*
G01*
X77750000Y-96325000D02*
G75*
G02*
X76750000Y-95325000I-1J999999D01*
G01*
X83750000Y-92925000D02*
G75*
G02*
X84750000Y-93925000I0J-1000000D01*
G01*
X84750000Y-95325000D02*
G75*
G02*
X83750000Y-96325000I-1000000J0D01*
G01*
X75455000Y-95625000D02*
G75*
G02*
X74455000Y-95625000I-500000J0D01*
G01*
X74455000Y-95625000D02*
G75*
G02*
X75455000Y-95625000I500000J0D01*
G01*
X87145000Y-95625000D02*
G75*
G02*
X85945000Y-95625000I-600000J0D01*
G01*
X85945000Y-95625000D02*
G75*
G02*
X87145000Y-95625000I600000J0D01*
G01*
%TO.C,SW2*%
X76750000Y-65400000D02*
X76750000Y-64000000D01*
X77750000Y-63000000D02*
X83750000Y-63000000D01*
X83750000Y-66400000D02*
X77750000Y-66400000D01*
X84750000Y-64000000D02*
X84750000Y-65400000D01*
X76750000Y-64000000D02*
G75*
G02*
X77750000Y-63000000I999999J1D01*
G01*
X77750000Y-66400000D02*
G75*
G02*
X76750000Y-65400000I-1J999999D01*
G01*
X83750000Y-63000000D02*
G75*
G02*
X84750000Y-64000000I0J-1000000D01*
G01*
X84750000Y-65400000D02*
G75*
G02*
X83750000Y-66400000I-1000000J0D01*
G01*
X75450000Y-66500000D02*
G75*
G02*
X74450000Y-66500000I-500000J0D01*
G01*
X74450000Y-66500000D02*
G75*
G02*
X75450000Y-66500000I500000J0D01*
G01*
X87150000Y-61000000D02*
G75*
G02*
X85950000Y-61000000I-600000J0D01*
G01*
X85950000Y-61000000D02*
G75*
G02*
X87150000Y-61000000I600000J0D01*
G01*
%TO.C,SW5*%
X59750000Y-82400000D02*
X59750000Y-81000000D01*
X60750000Y-80000000D02*
X66750000Y-80000000D01*
X66750000Y-83400000D02*
X60750000Y-83400000D01*
X67750000Y-81000000D02*
X67750000Y-82400000D01*
X59750000Y-81000000D02*
G75*
G02*
X60750000Y-80000000I999999J1D01*
G01*
X60750000Y-83400000D02*
G75*
G02*
X59750000Y-82400000I-1J999999D01*
G01*
X66750000Y-80000000D02*
G75*
G02*
X67750000Y-81000000I0J-1000000D01*
G01*
X67750000Y-82400000D02*
G75*
G02*
X66750000Y-83400000I-1000000J0D01*
G01*
X58450000Y-83500000D02*
G75*
G02*
X57450000Y-83500000I-500000J0D01*
G01*
X57450000Y-83500000D02*
G75*
G02*
X58450000Y-83500000I500000J0D01*
G01*
X70150000Y-78000000D02*
G75*
G02*
X68950000Y-78000000I-600000J0D01*
G01*
X68950000Y-78000000D02*
G75*
G02*
X70150000Y-78000000I600000J0D01*
G01*
%TO.C,SW4*%
X127750000Y-65400000D02*
X127750000Y-64000000D01*
X128750000Y-63000000D02*
X134750000Y-63000000D01*
X134750000Y-66400000D02*
X128750000Y-66400000D01*
X135750000Y-64000000D02*
X135750000Y-65400000D01*
X127750000Y-64000000D02*
G75*
G02*
X128750000Y-63000000I999999J1D01*
G01*
X128750000Y-66400000D02*
G75*
G02*
X127750000Y-65400000I-1J999999D01*
G01*
X134750000Y-63000000D02*
G75*
G02*
X135750000Y-64000000I0J-1000000D01*
G01*
X135750000Y-65400000D02*
G75*
G02*
X134750000Y-66400000I-1000000J0D01*
G01*
X126450000Y-66500000D02*
G75*
G02*
X125450000Y-66500000I-500000J0D01*
G01*
X125450000Y-66500000D02*
G75*
G02*
X126450000Y-66500000I500000J0D01*
G01*
X138150000Y-61000000D02*
G75*
G02*
X136950000Y-61000000I-600000J0D01*
G01*
X136950000Y-61000000D02*
G75*
G02*
X138150000Y-61000000I600000J0D01*
G01*
%TO.C,J1*%
X93800000Y-54320609D02*
X93300000Y-53320609D01*
X93800000Y-58819610D02*
X93800000Y-54320609D01*
X94062991Y-59520609D02*
X94390001Y-59520609D01*
X94655000Y-55820609D02*
X94655000Y-56320611D01*
X94655000Y-55820609D02*
X94955000Y-55070609D01*
X94655000Y-57820607D02*
X94655000Y-58820609D01*
X94904000Y-56611899D02*
X94904000Y-57529010D01*
X94955000Y-55070609D02*
X101045000Y-55070609D01*
X101096000Y-56612159D02*
X101096000Y-57529319D01*
X101345000Y-55820609D02*
X101045000Y-55070609D01*
X101345000Y-55820609D02*
X101345000Y-56320647D01*
X101345000Y-57820607D02*
X101345000Y-58820609D01*
X101937009Y-59520609D02*
X101609999Y-59520609D01*
X102200000Y-54320609D02*
X102700000Y-53320609D01*
X102200000Y-58819610D02*
X102200000Y-54320609D01*
X94062991Y-59520609D02*
G75*
G02*
X93800000Y-58819610I-263148J301108D01*
G01*
X94655000Y-56320611D02*
G75*
G02*
X94903999Y-56611899I-45880J-291288D01*
G01*
X94655000Y-58820609D02*
G75*
G02*
X94392010Y-59521608I157J-399891D01*
G01*
X94904000Y-57529010D02*
G75*
G02*
X94655000Y-57820570I-295140J-49D01*
G01*
X101096000Y-56612159D02*
G75*
G02*
X101345000Y-56320648I295140J0D01*
G01*
X101345000Y-57820607D02*
G75*
G02*
X101096001Y-57529319I45880J291288D01*
G01*
X101607990Y-59521608D02*
G75*
G02*
X101345000Y-58820610I-263147J301108D01*
G01*
X102200000Y-58819610D02*
G75*
G02*
X101937009Y-59520609I157J-399891D01*
G01*
%TO.C,SW10*%
X59750000Y-95325000D02*
X59750000Y-93925000D01*
X60750000Y-92925000D02*
X66750000Y-92925000D01*
X66750000Y-96325000D02*
X60750000Y-96325000D01*
X67750000Y-93925000D02*
X67750000Y-95325000D01*
X59750000Y-93925000D02*
G75*
G02*
X60750000Y-92925000I999999J1D01*
G01*
X60750000Y-96325000D02*
G75*
G02*
X59750000Y-95325000I-1J999999D01*
G01*
X66750000Y-92925000D02*
G75*
G02*
X67750000Y-93925000I0J-1000000D01*
G01*
X67750000Y-95325000D02*
G75*
G02*
X66750000Y-96325000I-1000000J0D01*
G01*
X58455000Y-95625000D02*
G75*
G02*
X57455000Y-95625000I-500000J0D01*
G01*
X57455000Y-95625000D02*
G75*
G02*
X58455000Y-95625000I500000J0D01*
G01*
X70145000Y-95625000D02*
G75*
G02*
X68945000Y-95625000I-600000J0D01*
G01*
X68945000Y-95625000D02*
G75*
G02*
X70145000Y-95625000I600000J0D01*
G01*
%TO.C,SW1*%
X59750000Y-65400000D02*
X59750000Y-64000000D01*
X60750000Y-63000000D02*
X66750000Y-63000000D01*
X66750000Y-66400000D02*
X60750000Y-66400000D01*
X67750000Y-64000000D02*
X67750000Y-65400000D01*
X59750000Y-64000000D02*
G75*
G02*
X60750000Y-63000000I999999J1D01*
G01*
X60750000Y-66400000D02*
G75*
G02*
X59750000Y-65400000I-1J999999D01*
G01*
X66750000Y-63000000D02*
G75*
G02*
X67750000Y-64000000I0J-1000000D01*
G01*
X67750000Y-65400000D02*
G75*
G02*
X66750000Y-66400000I-1000000J0D01*
G01*
X58450000Y-66500000D02*
G75*
G02*
X57450000Y-66500000I-500000J0D01*
G01*
X57450000Y-66500000D02*
G75*
G02*
X58450000Y-66500000I500000J0D01*
G01*
X70150000Y-61000000D02*
G75*
G02*
X68950000Y-61000000I-600000J0D01*
G01*
X68950000Y-61000000D02*
G75*
G02*
X70150000Y-61000000I600000J0D01*
G01*
%TO.C,SW14*%
X127750000Y-95325000D02*
X127750000Y-93925000D01*
X128750000Y-92925000D02*
X134750000Y-92925000D01*
X134750000Y-96325000D02*
X128750000Y-96325000D01*
X135750000Y-93925000D02*
X135750000Y-95325000D01*
X127750000Y-93925000D02*
G75*
G02*
X128750000Y-92925000I999999J1D01*
G01*
X128750000Y-96325000D02*
G75*
G02*
X127750000Y-95325000I-1J999999D01*
G01*
X134750000Y-92925000D02*
G75*
G02*
X135750000Y-93925000I0J-1000000D01*
G01*
X135750000Y-95325000D02*
G75*
G02*
X134750000Y-96325000I-1000000J0D01*
G01*
X126455000Y-95625000D02*
G75*
G02*
X125455000Y-95625000I-500000J0D01*
G01*
X125455000Y-95625000D02*
G75*
G02*
X126455000Y-95625000I500000J0D01*
G01*
X138145000Y-95625000D02*
G75*
G02*
X136945000Y-95625000I-600000J0D01*
G01*
X136945000Y-95625000D02*
G75*
G02*
X138145000Y-95625000I600000J0D01*
G01*
%TO.C,SW6*%
X76750000Y-82400000D02*
X76750000Y-81000000D01*
X77750000Y-80000000D02*
X83750000Y-80000000D01*
X83750000Y-83400000D02*
X77750000Y-83400000D01*
X84750000Y-81000000D02*
X84750000Y-82400000D01*
X76750000Y-81000000D02*
G75*
G02*
X77750000Y-80000000I999999J1D01*
G01*
X77750000Y-83400000D02*
G75*
G02*
X76750000Y-82400000I-1J999999D01*
G01*
X83750000Y-80000000D02*
G75*
G02*
X84750000Y-81000000I0J-1000000D01*
G01*
X84750000Y-82400000D02*
G75*
G02*
X83750000Y-83400000I-1000000J0D01*
G01*
X75450000Y-83500000D02*
G75*
G02*
X74450000Y-83500000I-500000J0D01*
G01*
X74450000Y-83500000D02*
G75*
G02*
X75450000Y-83500000I500000J0D01*
G01*
X87150000Y-78000000D02*
G75*
G02*
X85950000Y-78000000I-600000J0D01*
G01*
X85950000Y-78000000D02*
G75*
G02*
X87150000Y-78000000I600000J0D01*
G01*
%TO.C,SW9*%
X127750000Y-82400000D02*
X127750000Y-81000000D01*
X128750000Y-80000000D02*
X134750000Y-80000000D01*
X134750000Y-83400000D02*
X128750000Y-83400000D01*
X135750000Y-81000000D02*
X135750000Y-82400000D01*
X127750000Y-81000000D02*
G75*
G02*
X128750000Y-80000000I999999J1D01*
G01*
X128750000Y-83400000D02*
G75*
G02*
X127750000Y-82400000I-1J999999D01*
G01*
X134750000Y-80000000D02*
G75*
G02*
X135750000Y-81000000I0J-1000000D01*
G01*
X135750000Y-82400000D02*
G75*
G02*
X134750000Y-83400000I-1000000J0D01*
G01*
X126450000Y-83500000D02*
G75*
G02*
X125450000Y-83500000I-500000J0D01*
G01*
X125450000Y-83500000D02*
G75*
G02*
X126450000Y-83500000I500000J0D01*
G01*
X138150000Y-78000000D02*
G75*
G02*
X136950000Y-78000000I-600000J0D01*
G01*
X136950000Y-78000000D02*
G75*
G02*
X138150000Y-78000000I600000J0D01*
G01*
%TO.C,SW7*%
X93750000Y-82400000D02*
X93750000Y-81000000D01*
X94750000Y-80000000D02*
X100750000Y-80000000D01*
X100750000Y-83400000D02*
X94750000Y-83400000D01*
X101750000Y-81000000D02*
X101750000Y-82400000D01*
X93750000Y-81000000D02*
G75*
G02*
X94750000Y-80000000I999999J1D01*
G01*
X94750000Y-83400000D02*
G75*
G02*
X93750000Y-82400000I-1J999999D01*
G01*
X100750000Y-80000000D02*
G75*
G02*
X101750000Y-81000000I0J-1000000D01*
G01*
X101750000Y-82400000D02*
G75*
G02*
X100750000Y-83400000I-1000000J0D01*
G01*
X92450000Y-83500000D02*
G75*
G02*
X91450000Y-83500000I-500000J0D01*
G01*
X91450000Y-83500000D02*
G75*
G02*
X92450000Y-83500000I500000J0D01*
G01*
X104150000Y-78000000D02*
G75*
G02*
X102950000Y-78000000I-600000J0D01*
G01*
X102950000Y-78000000D02*
G75*
G02*
X104150000Y-78000000I600000J0D01*
G01*
%TO.C,SW3*%
X110750000Y-65400000D02*
X110750000Y-64000000D01*
X111750000Y-63000000D02*
X117750000Y-63000000D01*
X117750000Y-66400000D02*
X111750000Y-66400000D01*
X118750000Y-64000000D02*
X118750000Y-65400000D01*
X110750000Y-64000000D02*
G75*
G02*
X111750000Y-63000000I999999J1D01*
G01*
X111750000Y-66400000D02*
G75*
G02*
X110750000Y-65400000I-1J999999D01*
G01*
X117750000Y-63000000D02*
G75*
G02*
X118750000Y-64000000I0J-1000000D01*
G01*
X118750000Y-65400000D02*
G75*
G02*
X117750000Y-66400000I-1000000J0D01*
G01*
X109450000Y-66500000D02*
G75*
G02*
X108450000Y-66500000I-500000J0D01*
G01*
X108450000Y-66500000D02*
G75*
G02*
X109450000Y-66500000I500000J0D01*
G01*
X121150000Y-61000000D02*
G75*
G02*
X119950000Y-61000000I-600000J0D01*
G01*
X119950000Y-61000000D02*
G75*
G02*
X121150000Y-61000000I600000J0D01*
G01*
%TO.C,SW8*%
X110750000Y-82400000D02*
X110750000Y-81000000D01*
X111750000Y-80000000D02*
X117750000Y-80000000D01*
X117750000Y-83400000D02*
X111750000Y-83400000D01*
X118750000Y-81000000D02*
X118750000Y-82400000D01*
X110750000Y-81000000D02*
G75*
G02*
X111750000Y-80000000I999999J1D01*
G01*
X111750000Y-83400000D02*
G75*
G02*
X110750000Y-82400000I-1J999999D01*
G01*
X117750000Y-80000000D02*
G75*
G02*
X118750000Y-81000000I0J-1000000D01*
G01*
X118750000Y-82400000D02*
G75*
G02*
X117750000Y-83400000I-1000000J0D01*
G01*
X109450000Y-83500000D02*
G75*
G02*
X108450000Y-83500000I-500000J0D01*
G01*
X108450000Y-83500000D02*
G75*
G02*
X109450000Y-83500000I500000J0D01*
G01*
X121150000Y-78000000D02*
G75*
G02*
X119950000Y-78000000I-600000J0D01*
G01*
X119950000Y-78000000D02*
G75*
G02*
X121150000Y-78000000I600000J0D01*
G01*
%TO.C,SW12*%
X93750000Y-95325000D02*
X93750000Y-93925000D01*
X94750000Y-92925000D02*
X100750000Y-92925000D01*
X100750000Y-96325000D02*
X94750000Y-96325000D01*
X101750000Y-93925000D02*
X101750000Y-95325000D01*
X93750000Y-93925000D02*
G75*
G02*
X94750000Y-92925000I999999J1D01*
G01*
X94750000Y-96325000D02*
G75*
G02*
X93750000Y-95325000I-1J999999D01*
G01*
X100750000Y-92925000D02*
G75*
G02*
X101750000Y-93925000I0J-1000000D01*
G01*
X101750000Y-95325000D02*
G75*
G02*
X100750000Y-96325000I-1000000J0D01*
G01*
X92455000Y-95625000D02*
G75*
G02*
X91455000Y-95625000I-500000J0D01*
G01*
X91455000Y-95625000D02*
G75*
G02*
X92455000Y-95625000I500000J0D01*
G01*
X104145000Y-95625000D02*
G75*
G02*
X102945000Y-95625000I-600000J0D01*
G01*
X102945000Y-95625000D02*
G75*
G02*
X104145000Y-95625000I600000J0D01*
G01*
%TD*%
M02*
