%TF.GenerationSoftware,KiCad,Pcbnew,9.0.6*%
%TF.CreationDate,2025-12-18T00:43:41-05:00*%
%TF.ProjectId,secret-santa-2025,73656372-6574-42d7-9361-6e74612d3230,rev?*%
%TF.SameCoordinates,Original*%
%TF.FileFunction,Copper,L1,Top*%
%TF.FilePolarity,Positive*%
%FSLAX46Y46*%
G04 Gerber Fmt 4.6, Leading zero omitted, Abs format (unit mm)*
G04 Created by KiCad (PCBNEW 9.0.6) date 2025-12-18 00:43:41*
%MOMM*%
%LPD*%
G01*
G04 APERTURE LIST*
G04 Aperture macros list*
%AMRoundRect*
0 Rectangle with rounded corners*
0 $1 Rounding radius*
0 $2 $3 $4 $5 $6 $7 $8 $9 X,Y pos of 4 corners*
0 Add a 4 corners polygon primitive as box body*
4,1,4,$2,$3,$4,$5,$6,$7,$8,$9,$2,$3,0*
0 Add four circle primitives for the rounded corners*
1,1,$1+$1,$2,$3*
1,1,$1+$1,$4,$5*
1,1,$1+$1,$6,$7*
1,1,$1+$1,$8,$9*
0 Add four rect primitives between the rounded corners*
20,1,$1+$1,$2,$3,$4,$5,0*
20,1,$1+$1,$4,$5,$6,$7,0*
20,1,$1+$1,$6,$7,$8,$9,0*
20,1,$1+$1,$8,$9,$2,$3,0*%
G04 Aperture macros list end*
%TA.AperFunction,SMDPad,CuDef*%
%ADD10RoundRect,0.243750X-0.243750X-0.456250X0.243750X-0.456250X0.243750X0.456250X-0.243750X0.456250X0*%
%TD*%
%TA.AperFunction,CastellatedPad*%
%ADD11C,2.000000*%
%TD*%
%TA.AperFunction,SMDPad,CuDef*%
%ADD12R,2.000000X2.000000*%
%TD*%
%TA.AperFunction,SMDPad,CuDef*%
%ADD13RoundRect,0.243750X0.243750X0.456250X-0.243750X0.456250X-0.243750X-0.456250X0.243750X-0.456250X0*%
%TD*%
%TA.AperFunction,SMDPad,CuDef*%
%ADD14RoundRect,0.250000X-0.750000X-0.750000X0.750000X-0.750000X0.750000X0.750000X-0.750000X0.750000X0*%
%TD*%
%TA.AperFunction,SMDPad,CuDef*%
%ADD15R,0.250000X2.400000*%
%TD*%
%TA.AperFunction,SMDPad,CuDef*%
%ADD16R,0.250000X2.050000*%
%TD*%
%TA.AperFunction,SMDPad,CuDef*%
%ADD17R,0.250000X1.850000*%
%TD*%
%TA.AperFunction,SMDPad,CuDef*%
%ADD18RoundRect,0.225000X0.250000X-0.225000X0.250000X0.225000X-0.250000X0.225000X-0.250000X-0.225000X0*%
%TD*%
%TA.AperFunction,SMDPad,CuDef*%
%ADD19R,0.550000X0.500000*%
%TD*%
%TA.AperFunction,SMDPad,CuDef*%
%ADD20RoundRect,0.225000X-0.250000X0.225000X-0.250000X-0.225000X0.250000X-0.225000X0.250000X0.225000X0*%
%TD*%
%TA.AperFunction,SMDPad,CuDef*%
%ADD21RoundRect,0.100000X-0.637500X-0.100000X0.637500X-0.100000X0.637500X0.100000X-0.637500X0.100000X0*%
%TD*%
%TA.AperFunction,ViaPad*%
%ADD22C,0.600000*%
%TD*%
%TA.AperFunction,Conductor*%
%ADD23C,0.200000*%
%TD*%
G04 APERTURE END LIST*
D10*
%TO.P,D6,1,K*%
%TO.N,/RANG1*%
X79812500Y-61250000D03*
%TO.P,D6,2,A*%
%TO.N,Net-(D6-A)*%
X81687500Y-61250000D03*
%TD*%
D11*
%TO.P,SW13,1*%
%TO.N,/COL3*%
X113200000Y-96325000D03*
%TO.P,SW13,2*%
%TO.N,Net-(D13-A)*%
X116300000Y-96325000D03*
D12*
%TO.P,SW13,3*%
%TO.N,N/C*%
X108400000Y-91675000D03*
X108400000Y-99575000D03*
X121100000Y-91675000D03*
X121100000Y-99575000D03*
%TD*%
D11*
%TO.P,SW11,1*%
%TO.N,/COL1*%
X79200000Y-96325000D03*
%TO.P,SW11,2*%
%TO.N,Net-(D11-A)*%
X82300000Y-96325000D03*
D12*
%TO.P,SW11,3*%
%TO.N,N/C*%
X74400000Y-91675000D03*
X74400000Y-99575000D03*
X87100000Y-91675000D03*
X87100000Y-99575000D03*
%TD*%
D10*
%TO.P,D10,1,K*%
%TO.N,/RANG2*%
X62812500Y-78250000D03*
%TO.P,D10,2,A*%
%TO.N,Net-(D10-A)*%
X64687500Y-78250000D03*
%TD*%
D13*
%TO.P,D7,1,K*%
%TO.N,/RANG1*%
X104687501Y-70250000D03*
%TO.P,D7,2,A*%
%TO.N,Net-(D7-A)*%
X102812499Y-70250000D03*
%TD*%
D11*
%TO.P,SW2,1*%
%TO.N,/COL1*%
X79200000Y-66400000D03*
%TO.P,SW2,2*%
%TO.N,Net-(D2-A)*%
X82300000Y-66400000D03*
D14*
%TO.P,SW2,3*%
%TO.N,N/C*%
X74400000Y-57750000D03*
X74400000Y-69750000D03*
X87100000Y-57750000D03*
X87100000Y-69750000D03*
%TD*%
D11*
%TO.P,SW5,1*%
%TO.N,/COL0*%
X62200000Y-83400000D03*
%TO.P,SW5,2*%
%TO.N,Net-(D5-A)*%
X65300000Y-83400000D03*
D14*
%TO.P,SW5,3*%
%TO.N,N/C*%
X57400000Y-74750000D03*
X57400000Y-86750000D03*
X70100000Y-74750000D03*
X70100000Y-86750000D03*
%TD*%
D10*
%TO.P,D5,1,K*%
%TO.N,/RANG1*%
X62812500Y-61250000D03*
%TO.P,D5,2,A*%
%TO.N,Net-(D5-A)*%
X64687500Y-61250000D03*
%TD*%
D13*
%TO.P,D4,1,K*%
%TO.N,/RANG0*%
X104687501Y-68000000D03*
%TO.P,D4,2,A*%
%TO.N,Net-(D4-A)*%
X102812499Y-68000000D03*
%TD*%
D11*
%TO.P,SW4,1*%
%TO.N,/COL4*%
X130200000Y-66400000D03*
%TO.P,SW4,2*%
%TO.N,Net-(D4-A)*%
X133300000Y-66400000D03*
D14*
%TO.P,SW4,3*%
%TO.N,N/C*%
X125400000Y-57750000D03*
X125400000Y-69750000D03*
X138100000Y-57750000D03*
X138100000Y-69750000D03*
%TD*%
D15*
%TO.P,J1,A1,GND*%
%TO.N,Earth*%
X100750000Y-56720609D03*
D16*
%TO.P,J1,A4,VBUS*%
%TO.N,+5V*%
X99250000Y-56895609D03*
D17*
%TO.P,J1,A5,CC1*%
%TO.N,/CC1*%
X98750000Y-56995608D03*
%TO.P,J1,A6,DP1*%
%TO.N,/USB+*%
X98250000Y-56995609D03*
%TO.P,J1,A7,DN1*%
%TO.N,/USB-*%
X97750000Y-56995609D03*
D16*
%TO.P,J1,A9,VBUS*%
%TO.N,+5V*%
X96750000Y-56895609D03*
D15*
%TO.P,J1,A12,GND*%
%TO.N,Earth*%
X95250000Y-56720609D03*
%TD*%
D10*
%TO.P,D9,1,K*%
%TO.N,/RANG1*%
X130812500Y-61250000D03*
%TO.P,D9,2,A*%
%TO.N,Net-(D9-A)*%
X132687500Y-61250000D03*
%TD*%
D13*
%TO.P,D1,1,K*%
%TO.N,/RANG0*%
X92687501Y-68000000D03*
%TO.P,D1,2,A*%
%TO.N,Net-(D1-A)*%
X90812499Y-68000000D03*
%TD*%
D10*
%TO.P,D13,1,K*%
%TO.N,/RANG2*%
X113812500Y-78250000D03*
%TO.P,D13,2,A*%
%TO.N,Net-(D13-A)*%
X115687500Y-78250000D03*
%TD*%
D13*
%TO.P,D2,1,K*%
%TO.N,/RANG0*%
X92687501Y-65750000D03*
%TO.P,D2,2,A*%
%TO.N,Net-(D2-A)*%
X90812499Y-65750000D03*
%TD*%
D18*
%TO.P,C2,1*%
%TO.N,+3.3V*%
X102750000Y-62525000D03*
%TO.P,C2,2*%
%TO.N,Earth*%
X102750000Y-60975000D03*
%TD*%
D19*
%TO.P,RST1,1,1*%
%TO.N,/USB+*%
X90025000Y-61000000D03*
X90025000Y-62000000D03*
%TO.P,RST1,2,2*%
%TO.N,+3.3V*%
X93475000Y-61000000D03*
X93475000Y-62000000D03*
%TD*%
D13*
%TO.P,D3,1,K*%
%TO.N,/RANG0*%
X104687501Y-65750000D03*
%TO.P,D3,2,A*%
%TO.N,Net-(D3-A)*%
X102812499Y-65750000D03*
%TD*%
D20*
%TO.P,R2,1*%
%TO.N,/CC2*%
X95625000Y-60850000D03*
%TO.P,R2,2*%
%TO.N,Earth*%
X95625000Y-62400000D03*
%TD*%
D11*
%TO.P,SW10,1*%
%TO.N,/COL0*%
X62200000Y-96325000D03*
%TO.P,SW10,2*%
%TO.N,Net-(D10-A)*%
X65300000Y-96325000D03*
D12*
%TO.P,SW10,3*%
%TO.N,N/C*%
X57400000Y-91675000D03*
X57400000Y-99575000D03*
X70100000Y-91675000D03*
X70100000Y-99575000D03*
%TD*%
D10*
%TO.P,D14,1,K*%
%TO.N,/RANG2*%
X130812500Y-78250000D03*
%TO.P,D14,2,A*%
%TO.N,Net-(D14-A)*%
X132687500Y-78250000D03*
%TD*%
%TO.P,D8,1,K*%
%TO.N,/RANG1*%
X113812500Y-61250000D03*
%TO.P,D8,2,A*%
%TO.N,Net-(D8-A)*%
X115687500Y-61250000D03*
%TD*%
D20*
%TO.P,R1,1*%
%TO.N,/CC1*%
X99875000Y-60850000D03*
%TO.P,R1,2*%
%TO.N,Earth*%
X99875000Y-62400000D03*
%TD*%
D11*
%TO.P,SW1,1*%
%TO.N,/COL0*%
X62200000Y-66400000D03*
%TO.P,SW1,2*%
%TO.N,Net-(D1-A)*%
X65300000Y-66400000D03*
D14*
%TO.P,SW1,3*%
%TO.N,N/C*%
X57400000Y-57750000D03*
X57400000Y-69750000D03*
X70100000Y-57750000D03*
X70100000Y-69750000D03*
%TD*%
D10*
%TO.P,D11,1,K*%
%TO.N,/RANG2*%
X79812500Y-78250000D03*
%TO.P,D11,2,A*%
%TO.N,Net-(D11-A)*%
X81687500Y-78250000D03*
%TD*%
D11*
%TO.P,SW14,1*%
%TO.N,/COL4*%
X130200000Y-96325000D03*
%TO.P,SW14,2*%
%TO.N,Net-(D14-A)*%
X133300000Y-96325000D03*
D12*
%TO.P,SW14,3*%
%TO.N,N/C*%
X125400000Y-91675000D03*
X125400000Y-99575000D03*
X138100000Y-91675000D03*
X138100000Y-99575000D03*
%TD*%
D10*
%TO.P,D12,1,K*%
%TO.N,/RANG2*%
X96812500Y-78250000D03*
%TO.P,D12,2,A*%
%TO.N,Net-(D12-A)*%
X98687500Y-78250000D03*
%TD*%
D11*
%TO.P,SW6,1*%
%TO.N,/COL1*%
X79200000Y-83400000D03*
%TO.P,SW6,2*%
%TO.N,Net-(D6-A)*%
X82300000Y-83400000D03*
D14*
%TO.P,SW6,3*%
%TO.N,N/C*%
X74400000Y-74750000D03*
X74400000Y-86750000D03*
X87100000Y-74750000D03*
X87100000Y-86750000D03*
%TD*%
D11*
%TO.P,SW9,1*%
%TO.N,/COL4*%
X130200000Y-83400000D03*
%TO.P,SW9,2*%
%TO.N,Net-(D9-A)*%
X133300000Y-83400000D03*
D14*
%TO.P,SW9,3*%
%TO.N,N/C*%
X125400000Y-74750000D03*
X125400000Y-86750000D03*
X138100000Y-74750000D03*
X138100000Y-86750000D03*
%TD*%
D11*
%TO.P,SW7,1*%
%TO.N,/COL2*%
X96200000Y-83400000D03*
%TO.P,SW7,2*%
%TO.N,Net-(D7-A)*%
X99300000Y-83400000D03*
D14*
%TO.P,SW7,3*%
%TO.N,N/C*%
X91400000Y-74750000D03*
X91400000Y-86750000D03*
X104100000Y-74750000D03*
X104100000Y-86750000D03*
%TD*%
D11*
%TO.P,SW3,1*%
%TO.N,/COL3*%
X113200000Y-66400000D03*
%TO.P,SW3,2*%
%TO.N,Net-(D3-A)*%
X116300000Y-66400000D03*
D14*
%TO.P,SW3,3*%
%TO.N,N/C*%
X108400000Y-57750000D03*
X108400000Y-69750000D03*
X121100000Y-57750000D03*
X121100000Y-69750000D03*
%TD*%
D18*
%TO.P,C1,1*%
%TO.N,+5V*%
X104625000Y-62525000D03*
%TO.P,C1,2*%
%TO.N,Earth*%
X104625000Y-60975000D03*
%TD*%
D21*
%TO.P,U1,1,P3.2*%
%TO.N,/COL0*%
X94887500Y-64075000D03*
%TO.P,U1,2,P1.4*%
%TO.N,/COL1*%
X94887500Y-64725000D03*
%TO.P,U1,3,P1.5*%
%TO.N,/COL2*%
X94887500Y-65375000D03*
%TO.P,U1,4,P1.6*%
%TO.N,unconnected-(U1-P1.6-Pad4)*%
X94887500Y-66025000D03*
%TO.P,U1,5,P1.7*%
%TO.N,unconnected-(U1-P1.7-Pad5)*%
X94887500Y-66675000D03*
%TO.P,U1,6,RST*%
%TO.N,unconnected-(U1-RST-Pad6)*%
X94887500Y-67325000D03*
%TO.P,U1,7,P1.0*%
%TO.N,unconnected-(U1-P1.0-Pad7)*%
X94887500Y-67975000D03*
%TO.P,U1,8,P1.1*%
%TO.N,/RANG0*%
X94887500Y-68625000D03*
%TO.P,U1,9,P3.1*%
%TO.N,/RANG1*%
X94887500Y-69275000D03*
%TO.P,U1,10,P3.0*%
%TO.N,/RANG2*%
X94887500Y-69925000D03*
%TO.P,U1,11,P3.3*%
%TO.N,unconnected-(U1-P3.3-Pad11)*%
X100612500Y-69925000D03*
%TO.P,U1,12,P3.4*%
%TO.N,unconnected-(U1-P3.4-Pad12)*%
X100612500Y-69275000D03*
%TO.P,U1,13,P3.5*%
%TO.N,unconnected-(U1-P3.5-Pad13)*%
X100612500Y-68625000D03*
%TO.P,U1,14,P3.6/D+*%
%TO.N,/USB+*%
X100612500Y-67975000D03*
%TO.P,U1,15,P3.7/D-*%
%TO.N,/USB-*%
X100612500Y-67325000D03*
%TO.P,U1,16,P1.3*%
%TO.N,/COL3*%
X100612500Y-66675000D03*
%TO.P,U1,17,P1.2*%
%TO.N,/COL4*%
X100612500Y-66025000D03*
%TO.P,U1,18,GND*%
%TO.N,Earth*%
X100612500Y-65375000D03*
%TO.P,U1,19,VCC*%
%TO.N,+5V*%
X100612500Y-64725000D03*
%TO.P,U1,20,V33*%
%TO.N,+3.3V*%
X100612500Y-64075000D03*
%TD*%
D11*
%TO.P,SW8,1*%
%TO.N,/COL3*%
X113200000Y-83400000D03*
%TO.P,SW8,2*%
%TO.N,Net-(D8-A)*%
X116300000Y-83400000D03*
D14*
%TO.P,SW8,3*%
%TO.N,N/C*%
X108400000Y-74750000D03*
X108400000Y-86750000D03*
X121100000Y-74750000D03*
X121100000Y-86750000D03*
%TD*%
D11*
%TO.P,SW12,1*%
%TO.N,/COL2*%
X96200000Y-96325000D03*
%TO.P,SW12,2*%
%TO.N,Net-(D12-A)*%
X99300000Y-96325000D03*
D12*
%TO.P,SW12,3*%
%TO.N,N/C*%
X91400000Y-91675000D03*
X91400000Y-99575000D03*
X104100000Y-91675000D03*
X104100000Y-99575000D03*
%TD*%
D22*
%TO.N,+5V*%
X96555329Y-59964864D03*
X99763447Y-63411513D03*
X100945075Y-60976395D03*
%TO.N,Earth*%
X100941778Y-62951778D03*
X103710000Y-60975000D03*
X94500000Y-61190000D03*
%TO.N,+3.3V*%
X102425000Y-64075000D03*
X93500000Y-62800000D03*
%TO.N,/RANG0*%
X106000000Y-68000000D03*
X106000000Y-65750000D03*
X96500000Y-68500000D03*
%TO.N,Net-(D5-A)*%
X68500000Y-61500000D03*
%TO.N,Net-(D6-A)*%
X85500000Y-61500000D03*
%TO.N,Net-(D7-A)*%
X102000000Y-70125000D03*
%TO.N,Net-(D8-A)*%
X119500000Y-61500000D03*
%TO.N,Net-(D9-A)*%
X136500000Y-61500000D03*
%TO.N,/USB+*%
X97650000Y-62750000D03*
%TO.N,/USB-*%
X98350000Y-61500000D03*
X98443613Y-63104858D03*
%TO.N,/CC2*%
X97150000Y-60500000D03*
%TO.N,/COL0*%
X92066272Y-64111000D03*
X88400000Y-62500000D03*
%TO.N,/COL1*%
X89000000Y-67849000D03*
X89624265Y-63775735D03*
%TO.N,/COL3*%
X99043613Y-66716429D03*
%TO.N,/COL4*%
X99500000Y-66001003D03*
%TO.N,/COL2*%
X96500000Y-67500000D03*
%TD*%
D23*
%TO.N,+5V*%
X102024110Y-61774000D02*
X103874000Y-61774000D01*
X102024110Y-61774000D02*
X101226505Y-60976395D01*
X103874000Y-61774000D02*
X104625000Y-62525000D01*
X100625055Y-60374945D02*
X100624945Y-60374945D01*
X101542778Y-62255332D02*
X102024110Y-61774000D01*
X99763447Y-63411513D02*
X99925934Y-63574000D01*
X101542778Y-63200721D02*
X101542778Y-62255332D01*
X96555329Y-59964864D02*
X96750000Y-59770193D01*
X101169499Y-63574000D02*
X101542778Y-63200721D01*
X99875001Y-64725000D02*
X100612500Y-64725000D01*
X99574000Y-64423999D02*
X99875001Y-64725000D01*
X100624945Y-60374945D02*
X99250000Y-59000000D01*
X100945075Y-60976395D02*
X100945075Y-60694965D01*
X99574000Y-63600960D02*
X99574000Y-64423999D01*
X99925934Y-63574000D02*
X101169499Y-63574000D01*
X99763447Y-63411513D02*
X99574000Y-63600960D01*
X96750000Y-59770193D02*
X96750000Y-57801609D01*
X100945075Y-60694965D02*
X100625055Y-60374945D01*
X99250000Y-57801609D02*
X99250000Y-59000000D01*
X101226505Y-60976395D02*
X100945075Y-60976395D01*
%TO.N,Earth*%
X100612500Y-65375000D02*
X99875001Y-65375000D01*
X95625000Y-62400000D02*
X95625000Y-62315000D01*
X95250000Y-58150000D02*
X95250000Y-57801609D01*
X95500000Y-59750000D02*
X95500000Y-58400000D01*
X94500000Y-61190000D02*
X94500000Y-60750000D01*
X104625000Y-60975000D02*
X102750000Y-60975000D01*
X99875000Y-62400000D02*
X100390000Y-62400000D01*
X99162447Y-63112553D02*
X99875000Y-62400000D01*
X99162447Y-64662446D02*
X99162447Y-63112553D01*
X100557343Y-58362657D02*
X100750000Y-58170000D01*
X100390000Y-62400000D02*
X100941778Y-62951778D01*
X99875001Y-65375000D02*
X99162447Y-64662446D01*
X95625000Y-62315000D02*
X94500000Y-61190000D01*
X101792210Y-60975000D02*
X100557343Y-59740133D01*
X100557343Y-59740133D02*
X100557343Y-58362657D01*
X102750000Y-60975000D02*
X101792210Y-60975000D01*
X100750000Y-58170000D02*
X100750000Y-57801609D01*
X94500000Y-60750000D02*
X95500000Y-59750000D01*
X95500000Y-58400000D02*
X95250000Y-58150000D01*
%TO.N,+3.3V*%
X93475000Y-62775000D02*
X93475000Y-62000000D01*
X93475000Y-61000000D02*
X93475000Y-62000000D01*
X102425000Y-64075000D02*
X102750000Y-63750000D01*
X102750000Y-63750000D02*
X102750000Y-62525000D01*
X93500000Y-62800000D02*
X93475000Y-62775000D01*
X100612500Y-64075000D02*
X102425000Y-64075000D01*
%TO.N,/RANG0*%
X92687501Y-68000000D02*
X93312501Y-68625000D01*
X104687501Y-65750000D02*
X106000000Y-65750000D01*
X94887500Y-68625000D02*
X96375000Y-68625000D01*
X92687501Y-68000000D02*
X92687501Y-65750000D01*
X96375000Y-68625000D02*
X96500000Y-68500000D01*
X93312501Y-68625000D02*
X94887500Y-68625000D01*
X104687501Y-68000000D02*
X106000000Y-68000000D01*
%TO.N,Net-(D1-A)*%
X65300000Y-67800000D02*
X65949000Y-68449000D01*
X90000000Y-68000000D02*
X90812499Y-68000000D01*
X89551000Y-68449000D02*
X90000000Y-68000000D01*
X65300000Y-66400000D02*
X65300000Y-67800000D01*
X65949000Y-68449000D02*
X89551000Y-68449000D01*
%TO.N,Net-(D2-A)*%
X82300000Y-66400000D02*
X82400000Y-66400000D01*
X83000000Y-67000000D02*
X89562499Y-67000000D01*
X82900000Y-67000000D02*
X83000000Y-67000000D01*
X82400000Y-66400000D02*
X83000000Y-67000000D01*
X89562499Y-67000000D02*
X90812499Y-65750000D01*
X82300000Y-66400000D02*
X82900000Y-67000000D01*
%TO.N,Net-(D3-A)*%
X102812499Y-65750000D02*
X104062499Y-67000000D01*
X108246504Y-67000000D02*
X108947504Y-67701000D01*
X114999000Y-67701000D02*
X116300000Y-66400000D01*
X104062499Y-67000000D02*
X108246504Y-67000000D01*
X108947504Y-67701000D02*
X114999000Y-67701000D01*
%TO.N,Net-(D4-A)*%
X102812499Y-68000000D02*
X103813499Y-69001000D01*
X103813499Y-69001000D02*
X106862840Y-69001000D01*
X107761840Y-68102000D02*
X131598000Y-68102000D01*
X131598000Y-68102000D02*
X133300000Y-66400000D01*
X106862840Y-69001000D02*
X107761840Y-68102000D01*
%TO.N,/RANG1*%
X91600999Y-68600999D02*
X91600999Y-65061354D01*
X78562500Y-60000000D02*
X64062500Y-60000000D01*
X103246399Y-69001000D02*
X102336353Y-69001000D01*
X64062500Y-60000000D02*
X62812500Y-61250000D01*
X81062500Y-60000000D02*
X79812500Y-61250000D01*
X89000000Y-60500000D02*
X88500000Y-60000000D01*
X102023999Y-65061354D02*
X102409353Y-64676000D01*
X129611500Y-60049000D02*
X115013500Y-60049000D01*
X91600999Y-65061354D02*
X91039645Y-64500000D01*
X96342100Y-69275000D02*
X97213500Y-70146400D01*
X92275000Y-69275000D02*
X91600999Y-68600999D01*
X94887500Y-69275000D02*
X92275000Y-69275000D01*
X91039645Y-64500000D02*
X89500000Y-64500000D01*
X130812500Y-61250000D02*
X129611500Y-60049000D01*
X104687501Y-70250000D02*
X104495399Y-70250000D01*
X102409353Y-64676000D02*
X104074000Y-64676000D01*
X97213500Y-70146400D02*
X97213500Y-71713500D01*
X79812500Y-61250000D02*
X78562500Y-60000000D01*
X89000000Y-64000000D02*
X89000000Y-60500000D01*
X113812500Y-61250000D02*
X107500000Y-61250000D01*
X104399000Y-72101000D02*
X104687501Y-71812499D01*
X102336353Y-69001000D02*
X102023999Y-68688646D01*
X102023999Y-68688646D02*
X102023999Y-65061354D01*
X104495399Y-70250000D02*
X103246399Y-69001000D01*
X94887500Y-69275000D02*
X96342100Y-69275000D01*
X97601000Y-72101000D02*
X104399000Y-72101000D01*
X89500000Y-64500000D02*
X89000000Y-64000000D01*
X104074000Y-64676000D02*
X107500000Y-61250000D01*
X115013500Y-60049000D02*
X113812500Y-61250000D01*
X97213500Y-71713500D02*
X97601000Y-72101000D01*
X104687501Y-71812499D02*
X104687501Y-70250000D01*
X88500000Y-60000000D02*
X81062500Y-60000000D01*
%TO.N,Net-(D5-A)*%
X64687500Y-61250000D02*
X68250000Y-61250000D01*
X68250000Y-61250000D02*
X68500000Y-61500000D01*
%TO.N,Net-(D6-A)*%
X81687500Y-61250000D02*
X85250000Y-61250000D01*
X85250000Y-61250000D02*
X85500000Y-61500000D01*
%TO.N,Net-(D7-A)*%
X102687499Y-70125000D02*
X102812499Y-70250000D01*
X102000000Y-70125000D02*
X102687499Y-70125000D01*
%TO.N,Net-(D8-A)*%
X115687500Y-61250000D02*
X119250000Y-61250000D01*
X119250000Y-61250000D02*
X119500000Y-61500000D01*
%TO.N,Net-(D9-A)*%
X132687500Y-61250000D02*
X136250000Y-61250000D01*
X136250000Y-61250000D02*
X136500000Y-61500000D01*
%TO.N,Net-(D10-A)*%
X68500000Y-79000000D02*
X68500000Y-96500000D01*
X68000000Y-97000000D02*
X65975000Y-97000000D01*
X65975000Y-97000000D02*
X65300000Y-96325000D01*
X67750000Y-78250000D02*
X68500000Y-79000000D01*
X68500000Y-96500000D02*
X68000000Y-97000000D01*
X64687500Y-78250000D02*
X67750000Y-78250000D01*
%TO.N,/RANG2*%
X112611500Y-77049000D02*
X113812500Y-78250000D01*
X129562500Y-77000000D02*
X130812500Y-78250000D01*
X115062500Y-77000000D02*
X129562500Y-77000000D01*
X96812500Y-78250000D02*
X98013500Y-77049000D01*
X96425000Y-69925000D02*
X94887500Y-69925000D01*
X79812500Y-78250000D02*
X81013500Y-77049000D01*
X95611500Y-77049000D02*
X96812500Y-78250000D01*
X62812500Y-78250000D02*
X64013500Y-77049000D01*
X113812500Y-78250000D02*
X115062500Y-77000000D01*
X98013500Y-77049000D02*
X112611500Y-77049000D01*
X81013500Y-77049000D02*
X95611500Y-77049000D01*
X78611500Y-77049000D02*
X79812500Y-78250000D01*
X64013500Y-77049000D02*
X78611500Y-77049000D01*
X96812500Y-70312500D02*
X96425000Y-69925000D01*
X96812500Y-78250000D02*
X96812500Y-70312500D01*
%TO.N,Net-(D11-A)*%
X81687500Y-78250000D02*
X84750000Y-78250000D01*
X85000000Y-97000000D02*
X82975000Y-97000000D01*
X85500000Y-79000000D02*
X85500000Y-96500000D01*
X82975000Y-97000000D02*
X82300000Y-96325000D01*
X85500000Y-96500000D02*
X85000000Y-97000000D01*
X84750000Y-78250000D02*
X85500000Y-79000000D01*
%TO.N,Net-(D12-A)*%
X101750000Y-78250000D02*
X102500000Y-79000000D01*
X99975000Y-97000000D02*
X99300000Y-96325000D01*
X98687500Y-78250000D02*
X101750000Y-78250000D01*
X102500000Y-79000000D02*
X102500000Y-96500000D01*
X102500000Y-96500000D02*
X102000000Y-97000000D01*
X102000000Y-97000000D02*
X99975000Y-97000000D01*
%TO.N,Net-(D13-A)*%
X119000000Y-97000000D02*
X116975000Y-97000000D01*
X116975000Y-97000000D02*
X116300000Y-96325000D01*
X115687500Y-78250000D02*
X118750000Y-78250000D01*
X118750000Y-78250000D02*
X119500000Y-79000000D01*
X119500000Y-79000000D02*
X119500000Y-96500000D01*
X119500000Y-96500000D02*
X119000000Y-97000000D01*
%TO.N,Net-(D14-A)*%
X136500000Y-79000000D02*
X136500000Y-96500000D01*
X136500000Y-96500000D02*
X136000000Y-97000000D01*
X132687500Y-78250000D02*
X135750000Y-78250000D01*
X135750000Y-78250000D02*
X136500000Y-79000000D01*
X133975000Y-97000000D02*
X133300000Y-96325000D01*
X136000000Y-97000000D02*
X133975000Y-97000000D01*
%TO.N,/USB+*%
X97650000Y-62750000D02*
X96889000Y-63511000D01*
X90025000Y-61000000D02*
X90025000Y-62000000D01*
X98951000Y-61748943D02*
X97841343Y-62858599D01*
X98381185Y-67975000D02*
X97841343Y-67435158D01*
X97841343Y-67435158D02*
X97841343Y-62941343D01*
X90511000Y-63511000D02*
X90025000Y-63025000D01*
X100612500Y-67975000D02*
X98381185Y-67975000D01*
X96889000Y-63511000D02*
X90511000Y-63511000D01*
X97841343Y-62941343D02*
X97650000Y-62750000D01*
X98250000Y-60550057D02*
X98951000Y-61251057D01*
X98250000Y-57801609D02*
X98250000Y-60550057D01*
X90025000Y-63025000D02*
X90025000Y-62000000D01*
X98951000Y-61251057D02*
X98951000Y-61748943D01*
%TO.N,/CC1*%
X98750000Y-59725000D02*
X98750000Y-57801609D01*
X99875000Y-60850000D02*
X98750000Y-59725000D01*
%TO.N,/USB-*%
X98443613Y-63104858D02*
X98443613Y-67000000D01*
X100612500Y-67325000D02*
X98768613Y-67325000D01*
X98768613Y-67325000D02*
X98443613Y-67000000D01*
X97750000Y-57801609D02*
X97750000Y-60900000D01*
X97750000Y-60900000D02*
X98350000Y-61500000D01*
%TO.N,/CC2*%
X95625000Y-60850000D02*
X96800000Y-60850000D01*
X96800000Y-60850000D02*
X97150000Y-60500000D01*
%TO.N,/COL0*%
X59500000Y-67000000D02*
X61600000Y-67000000D01*
X92102272Y-64075000D02*
X92066272Y-64111000D01*
X59000000Y-66500000D02*
X59500000Y-67000000D01*
X88400000Y-62500000D02*
X59500000Y-62500000D01*
X61600000Y-67000000D02*
X62200000Y-66400000D01*
X59500000Y-62500000D02*
X59000000Y-63000000D01*
X59000000Y-63000000D02*
X59000000Y-66500000D01*
X94887500Y-64075000D02*
X92102272Y-64075000D01*
%TO.N,/COL1*%
X94887500Y-64725000D02*
X91831745Y-64725000D01*
X91205745Y-64099000D02*
X89947530Y-64099000D01*
X91831745Y-64725000D02*
X91205745Y-64099000D01*
X89947530Y-64099000D02*
X89624265Y-63775735D01*
X80649000Y-67849000D02*
X89000000Y-67849000D01*
X79200000Y-66400000D02*
X80649000Y-67849000D01*
%TO.N,/COL3*%
X99085042Y-66675000D02*
X99043613Y-66716429D01*
X100612500Y-66675000D02*
X99085042Y-66675000D01*
%TO.N,/COL4*%
X99523997Y-66025000D02*
X99500000Y-66001003D01*
X100612500Y-66025000D02*
X99523997Y-66025000D01*
%TO.N,/COL2*%
X95875000Y-65375000D02*
X94887500Y-65375000D01*
X96500000Y-66000000D02*
X95875000Y-65375000D01*
X96500000Y-67500000D02*
X96500000Y-66000000D01*
%TD*%
M02*
